# xmcd
#
# Track frame offsets:
#	150
#	13611
#	30740
#	41949
#	55732
#	69825
#	86030
#
# Disc length: 1405 seconds
#
# Revision: 1
# Processed by: cddbd v1.5.2PL0 Copyright (c) Steve Scherf et al.
# Submitted via: audiograbber 1.83.01
#
DISCID=54057b07
DTITLE=Olon CD - Volume 449 deel 2
DYEAR=2010
DGENRE=pop
TTITLE0=Rene Shuman and Angel-Eye - Travel in time
TTITLE1=Harmen Veerman - A fire upstairs in heaven
TTITLE2=Julie Blue - Sunny Day
TTITLE3=New Found Land - Human
TTITLE4=P&E Project - Time to lose control
TTITLE5=Skytah - Give it up
TTITLE6=World Peace is Possile - We are one
EXTD=
EXTT0=
EXTT1=
EXTT2=
EXTT3=
EXTT4=
EXTT5=
EXTT6=
PLAYORDER=
